<svg width="1113" height="361" viewBox="0 0 1113 361" fill="none" xmlns="http://www.w3.org/2000/svg">
<path d="M292.548 25.24H310.404C317.444 25.24 322.66 26.84 326.052 30.04C329.444 33.176 331.14 38.072 331.14 44.728C331.14 54.648 327.428 60.12 320.004 61.144C324.612 62.232 327.972 64.408 330.084 67.672C332.196 70.872 333.252 75.256 333.252 80.824C333.252 87.8 331.588 93.24 328.26 97.144C324.996 101.048 320.004 103 313.284 103H292.548V25.24ZM309.828 57.688C314.308 57.688 317.412 56.728 319.14 54.808C320.868 52.824 321.732 49.464 321.732 44.728C321.732 41.272 321.188 38.744 320.1 37.144C319.076 35.48 317.508 34.424 315.396 33.976C313.284 33.528 310.148 33.304 305.988 33.304H303.396V57.688H309.828ZM310.692 95.224C313.892 95.224 316.356 94.744 318.084 93.784C319.876 92.76 321.124 91.224 321.828 89.176C322.532 87.128 322.884 84.344 322.884 80.824C322.884 75.832 321.86 72.12 319.812 69.688C317.764 67.192 314.436 65.944 309.828 65.944H303.396V95.224H310.692ZM361.996 103.768C357.644 103.768 354.284 102.904 351.916 101.176C349.548 99.384 347.916 96.92 347.02 93.784C346.188 90.584 345.772 86.552 345.772 81.688V68.92C345.772 63.928 346.188 59.832 347.02 56.632C347.916 53.432 349.548 51 351.916 49.336C354.284 47.608 357.644 46.744 361.996 46.744C365.964 46.744 369.036 47.384 371.212 48.664C373.452 49.944 374.988 51.864 375.82 54.424C376.716 56.92 377.164 60.184 377.164 64.216V67.48H367.852V64.12C367.852 60.472 367.436 57.944 366.604 56.536C365.836 55.064 364.332 54.328 362.092 54.328C360.364 54.328 359.084 54.712 358.252 55.48C357.42 56.248 356.844 57.496 356.524 59.224C356.204 60.952 356.044 63.48 356.044 66.808V84.28C356.044 87.48 356.236 89.944 356.62 91.672C357.004 93.336 357.612 94.52 358.444 95.224C359.34 95.864 360.588 96.184 362.188 96.184C364.556 96.184 366.092 95.416 366.796 93.88C367.5 92.28 367.852 89.848 367.852 86.584V82.072H377.164V85.912C377.164 91.928 376.044 96.408 373.804 99.352C371.628 102.296 367.692 103.768 361.996 103.768ZM406.457 103.768C402.169 103.768 398.841 102.968 396.473 101.368C394.105 99.704 392.441 97.272 391.481 94.072C390.521 90.872 390.041 86.712 390.041 81.592V68.92C390.041 61.24 391.225 55.64 393.593 52.12C396.025 48.536 400.313 46.744 406.457 46.744C410.937 46.744 414.297 47.672 416.537 49.528C418.841 51.384 420.345 54.008 421.049 57.4C421.817 60.728 422.201 65.24 422.201 70.936V75.448H400.313V86.584C400.313 89.976 400.793 92.44 401.753 93.976C402.777 95.448 404.377 96.184 406.553 96.184C408.729 96.184 410.201 95.448 410.969 93.976C411.737 92.44 412.121 90.136 412.121 87.064V83.704H422.105V85.816C422.105 91.64 420.857 96.088 418.361 99.16C415.865 102.232 411.897 103.768 406.457 103.768ZM412.121 69.88V64.888C412.121 61.112 411.737 58.424 410.969 56.824C410.265 55.16 408.729 54.328 406.361 54.328C404.697 54.328 403.417 54.712 402.521 55.48C401.689 56.248 401.113 57.528 400.793 59.32C400.473 61.048 400.313 63.576 400.313 66.904V69.88H412.121ZM482.144 99.928H481.184C475.872 99.928 471.328 98.424 467.552 95.416C463.84 92.344 461.984 86.776 461.984 78.712V68.728C461.984 61.944 463.744 56.888 467.264 53.56C470.784 50.168 475.328 48.472 480.896 48.472H482.144V25.24H491.648V48.472H493.28C498.784 48.472 503.264 50.136 506.72 53.464C510.176 56.792 511.904 61.88 511.904 68.728V78.712C511.904 86.776 510.08 92.344 506.432 95.416C502.784 98.424 498.304 99.928 492.992 99.928H491.648V121.24H482.144V99.928ZM482.144 92.632V55.192H481.184C477.92 55.192 475.456 56.056 473.792 57.784C472.128 59.512 471.296 62.648 471.296 67.192V78.616C471.296 83.928 472.096 87.608 473.696 89.656C475.36 91.64 477.952 92.632 481.472 92.632H482.144ZM492.224 92.632C495.744 92.632 498.336 91.64 500 89.656C501.728 87.608 502.592 83.928 502.592 78.616V67.192C502.592 62.648 501.728 59.512 500 57.784C498.336 56.056 495.84 55.192 492.512 55.192H491.648V92.632H492.224ZM526.059 47.512H534.699V84.856L551.403 47.512H559.467V103H551.019V65.368L534.411 103H526.059V47.512ZM571.182 95.704C573.742 95.704 575.598 95.032 576.75 93.688C577.966 92.28 578.798 90.008 579.246 86.872C579.758 83.736 580.206 78.648 580.59 71.608L581.838 47.512H610.926V103H600.654V55.288H590.862L589.998 71.608C589.55 80.504 588.814 87.16 587.79 91.576C586.766 95.928 585.07 99 582.702 100.792C580.398 102.584 576.942 103.48 572.334 103.48H571.182V95.704ZM626.128 47.512H634.768V84.856L651.472 47.512H659.536V103H651.088V65.368L634.48 103H626.128V47.512ZM684.787 103.768C682.675 103.768 680.755 103.16 679.027 101.944C677.363 100.728 676.051 99.128 675.091 97.144C674.131 95.16 673.651 93.08 673.651 90.904C673.651 86.552 674.579 83.032 676.435 80.344C678.291 77.592 680.659 75.416 683.539 73.816C686.419 72.216 690.419 70.392 695.539 68.344V64.408C695.539 60.76 695.155 58.2 694.387 56.728C693.683 55.192 692.211 54.424 689.971 54.424C686.067 54.424 684.115 57.048 684.115 62.296V65.08L673.939 64.696C674.067 58.552 675.475 54.04 678.163 51.16C680.851 48.216 685.011 46.744 690.643 46.744C695.955 46.744 699.795 48.216 702.163 51.16C704.595 54.04 705.811 58.424 705.811 64.312V89.656C705.811 93.816 706.131 98.264 706.771 103H697.363C696.659 99.352 696.211 96.632 696.019 94.84C695.251 97.336 693.907 99.448 691.987 101.176C690.131 102.904 687.731 103.768 684.787 103.768ZM688.819 94.936C690.163 94.936 691.475 94.424 692.755 93.4C694.035 92.312 694.963 91.288 695.539 90.328V74.584C692.787 76.12 690.643 77.464 689.107 78.616C687.635 79.704 686.387 80.984 685.363 82.456C684.403 83.928 683.923 85.688 683.923 87.736C683.923 90.04 684.339 91.832 685.171 93.112C686.003 94.328 687.219 94.936 688.819 94.936ZM716.926 95.704C719.486 95.704 721.342 95.032 722.494 93.688C723.71 92.28 724.542 90.008 724.99 86.872C725.502 83.736 725.95 78.648 726.334 71.608L727.582 47.512H756.67V103H746.398V55.288H736.606L735.742 71.608C735.294 80.504 734.558 87.16 733.534 91.576C732.51 95.928 730.814 99 728.446 100.792C726.142 102.584 722.686 103.48 718.078 103.48H716.926V95.704ZM771.872 47.512H782.144V70.456H783.776C789.088 70.52 793.216 71.032 796.16 71.992C799.104 72.888 801.248 74.488 802.592 76.792C804 79.096 804.704 82.392 804.704 86.68C804.704 90.776 804 94.008 802.592 96.376C801.184 98.68 798.88 100.376 795.68 101.464C792.544 102.488 788.224 103 782.72 103H771.872V47.512ZM811.04 47.512H821.312V103H811.04V47.512ZM782.72 96.952C786.048 96.952 788.608 96.664 790.4 96.088C792.256 95.512 793.568 94.488 794.336 93.016C795.104 91.544 795.488 89.4 795.488 86.584C795.488 84.024 795.136 82.04 794.432 80.632C793.728 79.224 792.512 78.2 790.784 77.56C789.056 76.92 786.528 76.568 783.2 76.504H782.144V96.952H782.72Z" fill="white"/>
<path d="M325.535 290.12H335.183C338.543 290.12 340.975 291.032 342.479 292.856C344.015 294.68 344.783 297.352 344.783 300.872C344.783 304.04 343.967 306.504 342.335 308.264C340.703 310.024 338.335 310.904 335.231 310.904H330.959V329H325.535V290.12ZM333.455 307.016C335.055 307.016 336.287 306.84 337.151 306.488C338.047 306.136 338.687 305.528 339.071 304.664C339.455 303.8 339.647 302.552 339.647 300.92C339.647 298.936 339.503 297.48 339.215 296.552C338.927 295.624 338.351 294.968 337.487 294.584C336.655 294.2 335.327 294.008 333.503 294.008H330.959V307.016H333.455ZM360.165 328.904C356.645 328.904 354.117 327.96 352.581 326.072C351.077 324.184 350.325 321.4 350.325 317.72V315.8H355.461V317.336C355.461 319.096 355.541 320.472 355.701 321.464C355.861 322.424 356.277 323.208 356.949 323.816C357.621 324.392 358.677 324.68 360.117 324.68C361.557 324.68 362.629 324.36 363.333 323.72C364.069 323.08 364.549 322.2 364.773 321.08C364.997 319.96 365.109 318.472 365.109 316.616V310.472H358.293V306.92H365.109V301.256C365.109 299.272 364.949 297.72 364.629 296.6C364.309 295.48 363.781 294.68 363.045 294.2C362.341 293.72 361.365 293.48 360.117 293.48C358.741 293.48 357.717 293.784 357.045 294.392C356.373 295 355.941 295.832 355.749 296.888C355.557 297.944 355.461 299.384 355.461 301.208V302.888H350.325V301.16C350.325 297.288 351.061 294.328 352.533 292.28C354.005 290.232 356.549 289.208 360.165 289.208C364.005 289.208 366.693 290.36 368.229 292.664C369.797 294.936 370.581 298.088 370.581 302.12V315.848C370.581 320.136 369.813 323.384 368.277 325.592C366.741 327.8 364.037 328.904 360.165 328.904ZM377.808 330.728C378.672 330.824 379.424 330.872 380.064 330.872C381.632 330.872 382.704 330.616 383.28 330.104C383.888 329.592 384.192 328.776 384.192 327.656C384.192 327.016 384.08 326.024 383.856 324.68L376.176 290.12H381.312L384.576 306.68L386.544 319.016L388.272 306.776L391.2 290.12H396.384L389.424 324.776L389.04 326.936C388.624 329.208 388.208 330.856 387.792 331.88C387.408 332.904 386.656 333.672 385.536 334.184C384.416 334.728 382.688 335 380.352 335C379.936 335 379.088 334.968 377.808 334.904V330.728ZM415.328 301.256H419.648V319.928L428 301.256H432.032V329H427.808V310.184L419.504 329H415.328V301.256ZM439.809 301.256H443.601L449.745 318.296L455.937 301.256H459.729L460.017 329H455.697V312.44L450.561 326.264H448.977L443.841 312.536V329H439.521L439.809 301.256ZM467.232 323.288H472.368V329H467.232V323.288ZM492.719 290.12H507.503V294.152H498.143V329H492.719V290.12ZM512.963 323.288H518.099V329H512.963V323.288ZM525.082 290.12H534.01C537.53 290.12 540.138 290.92 541.834 292.52C543.53 294.088 544.378 296.536 544.378 299.864C544.378 304.824 542.522 307.56 538.81 308.072C541.114 308.616 542.794 309.704 543.85 311.336C544.906 312.936 545.434 315.128 545.434 317.912C545.434 321.4 544.602 324.12 542.938 326.072C541.306 328.024 538.81 329 535.45 329H525.082V290.12ZM533.722 306.344C535.962 306.344 537.514 305.864 538.378 304.904C539.242 303.912 539.674 302.232 539.674 299.864C539.674 298.136 539.402 296.872 538.858 296.072C538.346 295.24 537.562 294.712 536.506 294.488C535.45 294.264 533.882 294.152 531.802 294.152H530.506V306.344H533.722ZM534.154 325.112C535.754 325.112 536.986 324.872 537.85 324.392C538.746 323.88 539.37 323.112 539.722 322.088C540.074 321.064 540.25 319.672 540.25 317.912C540.25 315.416 539.738 313.56 538.714 312.344C537.69 311.096 536.026 310.472 533.722 310.472H530.506V325.112H534.154ZM551.982 323.288H557.118V329H551.982V323.288ZM577.469 290.12H598.877V329H593.453V294.008H582.893V329H577.469V290.12ZM605.13 325.352C606.41 325.352 607.338 325.016 607.914 324.344C608.522 323.64 608.938 322.504 609.162 320.936C609.418 319.368 609.642 316.824 609.834 313.304L610.458 301.256H625.002V329H619.866V305.144H614.97L614.538 313.304C614.314 317.752 613.946 321.08 613.434 323.288C612.922 325.464 612.074 327 610.89 327.896C609.738 328.792 608.01 329.24 605.706 329.24H605.13V325.352ZM640.283 329.384C638.139 329.384 636.475 328.984 635.291 328.184C634.107 327.352 633.275 326.136 632.795 324.536C632.315 322.936 632.075 320.856 632.075 318.296V311.96C632.075 308.12 632.667 305.32 633.851 303.56C635.067 301.768 637.211 300.872 640.283 300.872C642.523 300.872 644.203 301.336 645.323 302.264C646.475 303.192 647.227 304.504 647.579 306.2C647.963 307.864 648.155 310.12 648.155 312.968V315.224H637.211V320.792C637.211 322.488 637.451 323.72 637.931 324.488C638.443 325.224 639.243 325.592 640.331 325.592C641.419 325.592 642.155 325.224 642.539 324.488C642.923 323.72 643.115 322.568 643.115 321.032V319.352H648.107V320.408C648.107 323.32 647.483 325.544 646.235 327.08C644.987 328.616 643.003 329.384 640.283 329.384ZM643.115 312.44V309.944C643.115 308.056 642.923 306.712 642.539 305.912C642.187 305.08 641.419 304.664 640.235 304.664C639.403 304.664 638.763 304.856 638.315 305.24C637.899 305.624 637.611 306.264 637.451 307.16C637.291 308.024 637.211 309.288 637.211 310.952V312.44H643.115ZM659.286 314.408L653.19 301.256H658.086L662.166 310.04L665.766 301.256H670.806L664.47 315.032L670.902 329H666.006L661.638 319.592L657.894 329H653.046L659.286 314.408ZM681.254 329.384C680.198 329.384 679.238 329.08 678.374 328.472C677.542 327.864 676.886 327.064 676.406 326.072C675.926 325.08 675.686 324.04 675.686 322.952C675.686 320.776 676.15 319.016 677.078 317.672C678.006 316.296 679.19 315.208 680.63 314.408C682.07 313.608 684.07 312.696 686.63 311.672V309.704C686.63 307.88 686.438 306.6 686.054 305.864C685.702 305.096 684.966 304.712 683.846 304.712C681.894 304.712 680.918 306.024 680.918 308.648V310.04L675.83 309.848C675.894 306.776 676.598 304.52 677.942 303.08C679.286 301.608 681.366 300.872 684.182 300.872C686.838 300.872 688.758 301.608 689.942 303.08C691.158 304.52 691.766 306.712 691.766 309.656V322.328C691.766 324.408 691.926 326.632 692.246 329H687.542C687.19 327.176 686.966 325.816 686.87 324.92C686.486 326.168 685.814 327.224 684.854 328.088C683.926 328.952 682.726 329.384 681.254 329.384ZM683.27 324.968C683.942 324.968 684.598 324.712 685.238 324.2C685.878 323.656 686.342 323.144 686.63 322.664V314.792C685.254 315.56 684.182 316.232 683.414 316.808C682.678 317.352 682.054 317.992 681.542 318.728C681.062 319.464 680.822 320.344 680.822 321.368C680.822 322.52 681.03 323.416 681.446 324.056C681.862 324.664 682.47 324.968 683.27 324.968ZM699.1 301.256H704.236V312.92H710.812V301.256H715.948V329H710.812V316.664H704.236V329H699.1V301.256ZM731.163 329.384C728.219 329.384 726.123 328.52 724.875 326.792C723.659 325.032 723.051 322.488 723.051 319.16V311.096C723.051 307.768 723.659 305.24 724.875 303.512C726.123 301.752 728.219 300.872 731.163 300.872C734.075 300.872 736.139 301.752 737.355 303.512C738.603 305.24 739.227 307.768 739.227 311.096V319.16C739.227 322.488 738.603 325.032 737.355 326.792C736.139 328.52 734.075 329.384 731.163 329.384ZM731.163 325.592C732.091 325.592 732.763 325.32 733.179 324.776C733.595 324.232 733.851 323.56 733.947 322.76C734.043 321.96 734.091 320.872 734.091 319.496V310.808C734.091 309.432 734.043 308.344 733.947 307.544C733.851 306.712 733.595 306.024 733.179 305.48C732.763 304.936 732.091 304.664 731.163 304.664C730.235 304.664 729.547 304.936 729.099 305.48C728.683 306.024 728.427 306.712 728.331 307.544C728.235 308.344 728.187 309.432 728.187 310.808V319.496C728.187 320.872 728.235 321.96 728.331 322.76C728.427 323.56 728.683 324.232 729.099 324.776C729.547 325.32 730.235 325.592 731.163 325.592ZM746.322 301.256H754.098C756.754 301.256 758.658 301.896 759.81 303.176C760.994 304.456 761.586 306.104 761.586 308.12C761.586 309.592 761.314 310.824 760.77 311.816C760.226 312.776 759.282 313.464 757.938 313.88C759.506 314.2 760.61 315 761.25 316.28C761.922 317.56 762.258 319.112 762.258 320.936C762.258 323.56 761.666 325.56 760.482 326.936C759.298 328.312 757.25 329 754.338 329H746.322V301.256ZM753.858 312.44C754.914 312.44 755.714 312.136 756.258 311.528C756.802 310.92 757.074 309.912 757.074 308.504C757.074 307.256 756.754 306.36 756.114 305.816C755.474 305.272 754.546 305 753.33 305H751.362V312.44H753.858ZM753.186 325.112C754.466 325.112 755.458 324.808 756.162 324.2C756.866 323.592 757.218 322.44 757.218 320.744C757.218 319.368 757.058 318.36 756.738 317.72C756.418 317.048 756.002 316.616 755.49 316.424C754.978 316.232 754.29 316.136 753.426 316.136H751.362V325.112H753.186ZM773.636 329.384C772.58 329.384 771.62 329.08 770.756 328.472C769.924 327.864 769.268 327.064 768.788 326.072C768.308 325.08 768.068 324.04 768.068 322.952C768.068 320.776 768.532 319.016 769.46 317.672C770.388 316.296 771.572 315.208 773.012 314.408C774.452 313.608 776.452 312.696 779.012 311.672V309.704C779.012 307.88 778.82 306.6 778.436 305.864C778.084 305.096 777.348 304.712 776.228 304.712C774.276 304.712 773.3 306.024 773.3 308.648V310.04L768.212 309.848C768.276 306.776 768.98 304.52 770.324 303.08C771.668 301.608 773.748 300.872 776.564 300.872C779.22 300.872 781.14 301.608 782.324 303.08C783.54 304.52 784.148 306.712 784.148 309.656V322.328C784.148 324.408 784.308 326.632 784.628 329H779.924C779.572 327.176 779.348 325.816 779.252 324.92C778.868 326.168 778.196 327.224 777.236 328.088C776.308 328.952 775.108 329.384 773.636 329.384ZM775.652 324.968C776.324 324.968 776.98 324.712 777.62 324.2C778.26 323.656 778.724 323.144 779.012 322.664V314.792C777.636 315.56 776.564 316.232 775.796 316.808C775.06 317.352 774.436 317.992 773.924 318.728C773.444 319.464 773.204 320.344 773.204 321.368C773.204 322.52 773.412 323.416 773.828 324.056C774.244 324.664 774.852 324.968 775.652 324.968Z" fill="white"/>
</svg>
