<svg width="1113" height="361" viewBox="0 0 1113 361" fill="none" xmlns="http://www.w3.org/2000/svg">
<path d="M222.6 103H180.648V25.24H191.496V95.224H213.576V25.24H224.424V95.224H231.816V117.112H223.464L222.6 103ZM244.303 47.512H252.943V84.856L269.647 47.512H277.711V103H269.263V65.368L252.655 103H244.303V47.512ZM312.082 99.928H311.122C305.81 99.928 301.266 98.424 297.49 95.416C293.778 92.344 291.922 86.776 291.922 78.712V68.728C291.922 61.944 293.682 56.888 297.202 53.56C300.722 50.168 305.266 48.472 310.834 48.472H312.082V25.24H321.586V48.472H323.218C328.722 48.472 333.202 50.136 336.658 53.464C340.114 56.792 341.842 61.88 341.842 68.728V78.712C341.842 86.776 340.018 92.344 336.37 95.416C332.722 98.424 328.242 99.928 322.93 99.928H321.586V121.24H312.082V99.928ZM312.082 92.632V55.192H311.122C307.858 55.192 305.394 56.056 303.73 57.784C302.066 59.512 301.234 62.648 301.234 67.192V78.616C301.234 83.928 302.034 87.608 303.634 89.656C305.298 91.64 307.89 92.632 311.41 92.632H312.082ZM322.162 92.632C325.682 92.632 328.274 91.64 329.938 89.656C331.666 87.608 332.53 83.928 332.53 78.616V67.192C332.53 62.648 331.666 59.512 329.938 57.784C328.274 56.056 325.778 55.192 322.45 55.192H321.586V92.632H322.162ZM355.997 47.512H366.269V51.928C369.277 48.472 372.797 46.744 376.829 46.744C381.885 46.744 385.245 48.92 386.909 53.272C388.637 57.56 389.501 62.328 389.501 67.576V81.016C389.501 87.8 388.445 93.304 386.333 97.528C384.285 101.688 380.733 103.768 375.677 103.768C372.413 103.768 369.277 102.136 366.269 98.872V121.24H355.997V47.512ZM373.661 95.704C376.029 95.704 377.533 94.52 378.173 92.152C378.877 89.72 379.229 86.008 379.229 81.016V67.576C379.229 63.48 378.845 60.344 378.077 58.168C377.309 55.928 375.709 54.808 373.277 54.808C370.909 54.808 368.573 55.768 366.269 57.688V93.208C368.509 94.872 370.973 95.704 373.661 95.704ZM418.904 103.768C413.016 103.768 408.824 102.04 406.328 98.584C403.896 95.064 402.68 89.976 402.68 83.32V67.192C402.68 60.536 403.896 55.48 406.328 52.024C408.824 48.504 413.016 46.744 418.904 46.744C424.728 46.744 428.856 48.504 431.288 52.024C433.784 55.48 435.032 60.536 435.032 67.192V83.32C435.032 89.976 433.784 95.064 431.288 98.584C428.856 102.04 424.728 103.768 418.904 103.768ZM418.904 96.184C420.76 96.184 422.104 95.64 422.936 94.552C423.768 93.464 424.28 92.12 424.472 90.52C424.664 88.92 424.76 86.744 424.76 83.992V66.616C424.76 63.864 424.664 61.688 424.472 60.088C424.28 58.424 423.768 57.048 422.936 55.96C422.104 54.872 420.76 54.328 418.904 54.328C417.048 54.328 415.672 54.872 414.776 55.96C413.944 57.048 413.432 58.424 413.24 60.088C413.048 61.688 412.952 63.864 412.952 66.616V83.992C412.952 86.744 413.048 88.92 413.24 90.52C413.432 92.12 413.944 93.464 414.776 94.552C415.672 95.64 417.048 96.184 418.904 96.184ZM449.222 47.512H464.774C470.086 47.512 473.894 48.792 476.198 51.352C478.566 53.912 479.75 57.208 479.75 61.24C479.75 64.184 479.206 66.648 478.118 68.632C477.03 70.552 475.142 71.928 472.454 72.76C475.59 73.4 477.798 75 479.078 77.56C480.422 80.12 481.094 83.224 481.094 86.872C481.094 92.12 479.91 96.12 477.542 98.872C475.174 101.624 471.078 103 465.254 103H449.222V47.512ZM464.294 69.88C466.406 69.88 468.006 69.272 469.094 68.056C470.182 66.84 470.726 64.824 470.726 62.008C470.726 59.512 470.086 57.72 468.806 56.632C467.526 55.544 465.67 55 463.238 55H459.302V69.88H464.294ZM462.95 95.224C465.51 95.224 467.494 94.616 468.902 93.4C470.31 92.184 471.014 89.88 471.014 86.488C471.014 83.736 470.694 81.72 470.054 80.44C469.414 79.096 468.582 78.232 467.558 77.848C466.534 77.464 465.158 77.272 463.43 77.272H459.302V95.224H462.95ZM503.849 103.768C501.737 103.768 499.817 103.16 498.089 101.944C496.425 100.728 495.113 99.128 494.153 97.144C493.193 95.16 492.713 93.08 492.713 90.904C492.713 86.552 493.641 83.032 495.497 80.344C497.353 77.592 499.721 75.416 502.601 73.816C505.481 72.216 509.481 70.392 514.601 68.344V64.408C514.601 60.76 514.217 58.2 513.449 56.728C512.745 55.192 511.273 54.424 509.033 54.424C505.129 54.424 503.177 57.048 503.177 62.296V65.08L493.001 64.696C493.129 58.552 494.537 54.04 497.225 51.16C499.913 48.216 504.073 46.744 509.705 46.744C515.017 46.744 518.857 48.216 521.225 51.16C523.657 54.04 524.873 58.424 524.873 64.312V89.656C524.873 93.816 525.193 98.264 525.833 103H516.425C515.721 99.352 515.273 96.632 515.081 94.84C514.313 97.336 512.969 99.448 511.049 101.176C509.193 102.904 506.793 103.768 503.849 103.768ZM507.881 94.936C509.225 94.936 510.537 94.424 511.817 93.4C513.097 92.312 514.025 91.288 514.601 90.328V74.584C511.849 76.12 509.705 77.464 508.169 78.616C506.697 79.704 505.449 80.984 504.425 82.456C503.465 83.928 502.985 85.688 502.985 87.736C502.985 90.04 503.401 91.832 504.233 93.112C505.065 94.328 506.281 94.936 507.881 94.936ZM545.78 79.48C540.724 77.56 538.196 72.472 538.196 64.216C538.196 60.248 538.868 57.048 540.212 54.616C541.62 52.184 543.892 50.392 547.028 49.24C550.228 48.088 554.484 47.512 559.796 47.512H570.548V103H560.372V81.112C559.284 81.112 557.652 81.048 555.476 80.92L546.356 103H535.316L545.78 79.48ZM560.372 75.16V53.368H559.316C554.836 53.432 551.732 54.264 550.004 55.864C548.276 57.464 547.412 60.248 547.412 64.216C547.412 67.992 548.244 70.744 549.908 72.472C551.636 74.2 554.74 75.096 559.22 75.16H560.372ZM632.867 103.864C625.187 103.864 619.779 101.592 616.643 97.048C613.507 92.44 611.939 86.104 611.939 78.04V50.584C611.939 42.072 613.475 35.608 616.547 31.192C619.619 26.776 625.059 24.568 632.867 24.568C639.843 24.568 644.835 26.456 647.843 30.232C650.915 34.008 652.451 39.576 652.451 46.936V53.08H642.179V47.608C642.179 44.024 642.019 41.272 641.699 39.352C641.379 37.432 640.547 35.896 639.203 34.744C637.923 33.592 635.843 33.016 632.963 33.016C630.019 33.016 627.811 33.656 626.339 34.936C624.931 36.152 624.003 37.88 623.555 40.12C623.107 42.296 622.883 45.24 622.883 48.952V79.768C622.883 83.736 623.203 86.84 623.843 89.08C624.483 91.32 625.507 92.92 626.915 93.88C628.387 94.84 630.403 95.32 632.963 95.32C635.715 95.32 637.763 94.712 639.107 93.496C640.451 92.28 641.283 90.616 641.603 88.504C641.987 86.392 642.179 83.512 642.179 79.864V74.104H652.451V79.864C652.451 87.608 650.979 93.56 648.035 97.72C645.155 101.816 640.099 103.864 632.867 103.864ZM666.721 47.512H675.361V84.856L692.065 47.512H700.129V103H691.681V65.368L675.073 103H666.721V47.512ZM730.565 103.768C726.213 103.768 722.853 102.904 720.485 101.176C718.117 99.384 716.485 96.92 715.589 93.784C714.757 90.584 714.341 86.552 714.341 81.688V68.92C714.341 63.928 714.757 59.832 715.589 56.632C716.485 53.432 718.117 51 720.485 49.336C722.853 47.608 726.213 46.744 730.565 46.744C734.533 46.744 737.605 47.384 739.781 48.664C742.021 49.944 743.557 51.864 744.389 54.424C745.285 56.92 745.733 60.184 745.733 64.216V67.48H736.421V64.12C736.421 60.472 736.005 57.944 735.173 56.536C734.405 55.064 732.901 54.328 730.661 54.328C728.933 54.328 727.653 54.712 726.821 55.48C725.989 56.248 725.413 57.496 725.093 59.224C724.773 60.952 724.613 63.48 724.613 66.808V84.28C724.613 87.48 724.805 89.944 725.189 91.672C725.573 93.336 726.181 94.52 727.013 95.224C727.909 95.864 729.157 96.184 730.757 96.184C733.125 96.184 734.661 95.416 735.365 93.88C736.069 92.28 736.421 89.848 736.421 86.584V82.072H745.733V85.912C745.733 91.928 744.613 96.408 742.373 99.352C740.197 102.296 736.261 103.768 730.565 103.768ZM765.905 55.192H755.537V47.512H786.641V55.192H776.177V103H765.905V55.192ZM812.45 103.768C808.162 103.768 804.834 102.968 802.466 101.368C800.098 99.704 798.434 97.272 797.474 94.072C796.514 90.872 796.034 86.712 796.034 81.592V68.92C796.034 61.24 797.218 55.64 799.586 52.12C802.018 48.536 806.306 46.744 812.45 46.744C816.93 46.744 820.29 47.672 822.53 49.528C824.834 51.384 826.338 54.008 827.042 57.4C827.81 60.728 828.194 65.24 828.194 70.936V75.448H806.306V86.584C806.306 89.976 806.786 92.44 807.746 93.976C808.77 95.448 810.37 96.184 812.546 96.184C814.722 96.184 816.194 95.448 816.962 93.976C817.73 92.44 818.114 90.136 818.114 87.064V83.704H828.098V85.816C828.098 91.64 826.85 96.088 824.354 99.16C821.858 102.232 817.89 103.768 812.45 103.768ZM818.114 69.88V64.888C818.114 61.112 817.73 58.424 816.962 56.824C816.258 55.16 814.722 54.328 812.354 54.328C810.69 54.328 809.41 54.712 808.514 55.48C807.682 56.248 807.106 57.528 806.786 59.32C806.466 61.048 806.306 63.576 806.306 66.904V69.88H818.114ZM842.585 47.512H850.169L862.457 81.592L874.841 47.512H882.425L883.001 103H874.361V69.88L864.089 97.528H860.921L850.649 70.072V103H842.009L842.585 47.512ZM907.893 103.768C905.781 103.768 903.861 103.16 902.133 101.944C900.469 100.728 899.157 99.128 898.197 97.144C897.237 95.16 896.757 93.08 896.757 90.904C896.757 86.552 897.685 83.032 899.541 80.344C901.397 77.592 903.765 75.416 906.645 73.816C909.525 72.216 913.525 70.392 918.645 68.344V64.408C918.645 60.76 918.261 58.2 917.493 56.728C916.789 55.192 915.317 54.424 913.077 54.424C909.173 54.424 907.221 57.048 907.221 62.296V65.08L897.045 64.696C897.173 58.552 898.581 54.04 901.269 51.16C903.957 48.216 908.117 46.744 913.749 46.744C919.061 46.744 922.901 48.216 925.269 51.16C927.701 54.04 928.917 58.424 928.917 64.312V89.656C928.917 93.816 929.237 98.264 929.877 103H920.469C919.765 99.352 919.317 96.632 919.125 94.84C918.357 97.336 917.013 99.448 915.093 101.176C913.237 102.904 910.837 103.768 907.893 103.768ZM911.925 94.936C913.269 94.936 914.581 94.424 915.861 93.4C917.141 92.312 918.069 91.288 918.645 90.328V74.584C915.893 76.12 913.749 77.464 912.213 78.616C910.741 79.704 909.493 80.984 908.469 82.456C907.509 83.928 907.029 85.688 907.029 87.736C907.029 90.04 907.445 91.832 908.277 93.112C909.109 94.328 910.325 94.936 911.925 94.936ZM23.1585 145.24H33.8145L47.5425 208.312L61.3665 145.24H71.9265L73.3665 223H64.6305L63.7665 166.552L50.6145 223H44.4705L31.4145 166.552L30.5505 223H21.7185L23.1585 145.24ZM104.485 223.768C98.5975 223.768 94.4055 222.04 91.9095 218.584C89.4775 215.064 88.2615 209.976 88.2615 203.32V187.192C88.2615 180.536 89.4775 175.48 91.9095 172.024C94.4055 168.504 98.5975 166.744 104.485 166.744C110.309 166.744 114.437 168.504 116.869 172.024C119.365 175.48 120.613 180.536 120.613 187.192V203.32C120.613 209.976 119.365 215.064 116.869 218.584C114.437 222.04 110.309 223.768 104.485 223.768ZM104.485 216.184C106.341 216.184 107.685 215.64 108.517 214.552C109.349 213.464 109.861 212.12 110.053 210.52C110.245 208.92 110.341 206.744 110.341 203.992V186.616C110.341 183.864 110.245 181.688 110.053 180.088C109.861 178.424 109.349 177.048 108.517 175.96C107.685 174.872 106.341 174.328 104.485 174.328C102.629 174.328 101.253 174.872 100.357 175.96C99.5255 177.048 99.0135 178.424 98.8215 180.088C98.6295 181.688 98.5335 183.864 98.5335 186.616V203.992C98.5335 206.744 98.6295 208.92 98.8215 210.52C99.0135 212.12 99.5255 213.464 100.357 214.552C101.253 215.64 102.629 216.184 104.485 216.184ZM134.803 167.512H145.075V190.84H158.227V167.512H168.499V223H158.227V198.328H145.075V223H134.803V167.512ZM183.665 167.512H192.305V204.856L209.009 167.512H217.073V223H208.625V185.368L192.017 223H183.665V167.512ZM238.58 175.192H228.212V167.512H259.316V175.192H248.852V223H238.58V175.192ZM285.029 223.768C279.141 223.768 274.949 222.04 272.453 218.584C270.021 215.064 268.805 209.976 268.805 203.32V187.192C268.805 180.536 270.021 175.48 272.453 172.024C274.949 168.504 279.141 166.744 285.029 166.744C290.853 166.744 294.981 168.504 297.413 172.024C299.909 175.48 301.157 180.536 301.157 187.192V203.32C301.157 209.976 299.909 215.064 297.413 218.584C294.981 222.04 290.853 223.768 285.029 223.768ZM285.029 216.184C286.885 216.184 288.229 215.64 289.061 214.552C289.893 213.464 290.405 212.12 290.597 210.52C290.789 208.92 290.885 206.744 290.885 203.992V186.616C290.885 183.864 290.789 181.688 290.597 180.088C290.405 178.424 289.893 177.048 289.061 175.96C288.229 174.872 286.885 174.328 285.029 174.328C283.173 174.328 281.797 174.872 280.901 175.96C280.069 177.048 279.557 178.424 279.365 180.088C279.173 181.688 279.077 183.864 279.077 186.616V203.992C279.077 206.744 279.173 208.92 279.365 210.52C279.557 212.12 280.069 213.464 280.901 214.552C281.797 215.64 283.173 216.184 285.029 216.184ZM315.346 167.512H325.618V171.928C328.626 168.472 332.146 166.744 336.178 166.744C341.234 166.744 344.594 168.92 346.258 173.272C347.986 177.56 348.85 182.328 348.85 187.576V201.016C348.85 207.8 347.794 213.304 345.682 217.528C343.634 221.688 340.082 223.768 335.026 223.768C331.762 223.768 328.626 222.136 325.618 218.872V241.24H315.346V167.512ZM333.01 215.704C335.378 215.704 336.882 214.52 337.522 212.152C338.226 209.72 338.578 206.008 338.578 201.016V187.576C338.578 183.48 338.194 180.344 337.426 178.168C336.658 175.928 335.058 174.808 332.626 174.808C330.258 174.808 327.922 175.768 325.618 177.688V213.208C327.858 214.872 330.322 215.704 333.01 215.704ZM362.99 167.512H371.63V204.856L388.334 167.512H396.398V223H387.95V185.368L371.342 223H362.99V167.512ZM411.665 167.512H421.937V190.84H435.089V167.512H445.361V223H435.089V198.328H421.937V223H411.665V167.512ZM460.528 167.512H482.896V174.904H470.8V223H460.528V167.512ZM502.593 223.768C500.481 223.768 498.561 223.16 496.833 221.944C495.169 220.728 493.857 219.128 492.897 217.144C491.937 215.16 491.457 213.08 491.457 210.904C491.457 206.552 492.385 203.032 494.241 200.344C496.097 197.592 498.465 195.416 501.345 193.816C504.225 192.216 508.225 190.392 513.345 188.344V184.408C513.345 180.76 512.961 178.2 512.193 176.728C511.489 175.192 510.017 174.424 507.777 174.424C503.873 174.424 501.921 177.048 501.921 182.296V185.08L491.745 184.696C491.873 178.552 493.281 174.04 495.969 171.16C498.657 168.216 502.817 166.744 508.449 166.744C513.761 166.744 517.601 168.216 519.969 171.16C522.401 174.04 523.617 178.424 523.617 184.312V209.656C523.617 213.816 523.937 218.264 524.577 223H515.169C514.465 219.352 514.017 216.632 513.825 214.84C513.057 217.336 511.713 219.448 509.793 221.176C507.937 222.904 505.537 223.768 502.593 223.768ZM506.625 214.936C507.969 214.936 509.281 214.424 510.561 213.4C511.841 212.312 512.769 211.288 513.345 210.328V194.584C510.593 196.12 508.449 197.464 506.913 198.616C505.441 199.704 504.193 200.984 503.169 202.456C502.209 203.928 501.729 205.688 501.729 207.736C501.729 210.04 502.145 211.832 502.977 213.112C503.809 214.328 505.025 214.936 506.625 214.936ZM564.925 226.456C566.653 226.648 568.157 226.744 569.437 226.744C572.573 226.744 574.717 226.232 575.869 225.208C577.085 224.184 577.693 222.552 577.693 220.312C577.693 219.032 577.469 217.048 577.021 214.36L561.661 145.24H571.933L578.461 178.36L582.397 203.032L585.853 178.552L591.709 145.24H602.077L588.157 214.552L587.389 218.872C586.557 223.416 585.725 226.712 584.893 228.76C584.125 230.808 582.621 232.344 580.381 233.368C578.141 234.456 574.685 235 570.013 235C569.181 235 567.485 234.936 564.925 234.808V226.456ZM613.228 167.512H623.5V190.84H636.652V167.512H646.924V223H636.652V198.328H623.5V223H613.228V167.512ZM662.09 167.512H670.73V204.856L687.434 167.512H695.498V223H687.05V185.368L670.442 223H662.09V167.512ZM710.765 167.512H726.317C731.629 167.512 735.437 168.792 737.741 171.352C740.109 173.912 741.293 177.208 741.293 181.24C741.293 184.184 740.749 186.648 739.661 188.632C738.573 190.552 736.685 191.928 733.997 192.76C737.133 193.4 739.341 195 740.621 197.56C741.965 200.12 742.637 203.224 742.637 206.872C742.637 212.12 741.453 216.12 739.085 218.872C736.717 221.624 732.621 223 726.797 223H710.765V167.512ZM725.837 189.88C727.949 189.88 729.549 189.272 730.637 188.056C731.725 186.84 732.269 184.824 732.269 182.008C732.269 179.512 731.629 177.72 730.349 176.632C729.069 175.544 727.213 175 724.781 175H720.845V189.88H725.837ZM724.493 215.224C727.053 215.224 729.037 214.616 730.445 213.4C731.853 212.184 732.557 209.88 732.557 206.488C732.557 203.736 732.237 201.72 731.597 200.44C730.957 199.096 730.125 198.232 729.101 197.848C728.077 197.464 726.701 197.272 724.973 197.272H720.845V215.224H724.493ZM770.769 223.768C766.481 223.768 763.153 222.968 760.785 221.368C758.417 219.704 756.753 217.272 755.793 214.072C754.833 210.872 754.353 206.712 754.353 201.592V188.92C754.353 181.24 755.537 175.64 757.905 172.12C760.337 168.536 764.625 166.744 770.769 166.744C775.249 166.744 778.609 167.672 780.849 169.528C783.153 171.384 784.657 174.008 785.361 177.4C786.129 180.728 786.513 185.24 786.513 190.936V195.448H764.625V206.584C764.625 209.976 765.105 212.44 766.065 213.976C767.089 215.448 768.689 216.184 770.865 216.184C773.041 216.184 774.513 215.448 775.281 213.976C776.049 212.44 776.433 210.136 776.433 207.064V203.704H786.417V205.816C786.417 211.64 785.169 216.088 782.673 219.16C780.177 222.232 776.209 223.768 770.769 223.768ZM776.433 189.88V184.888C776.433 181.112 776.049 178.424 775.281 176.824C774.577 175.16 773.041 174.328 770.673 174.328C769.009 174.328 767.729 174.712 766.833 175.48C766.001 176.248 765.425 177.528 765.105 179.32C764.785 181.048 764.625 183.576 764.625 186.904V189.88H776.433ZM800.615 167.512H810.887V171.928C813.895 168.472 817.415 166.744 821.447 166.744C826.503 166.744 829.863 168.92 831.527 173.272C833.255 177.56 834.119 182.328 834.119 187.576V201.016C834.119 207.8 833.063 213.304 830.951 217.528C828.903 221.688 825.351 223.768 820.295 223.768C817.031 223.768 813.895 222.136 810.887 218.872V241.24H800.615V167.512ZM818.279 215.704C820.647 215.704 822.151 214.52 822.791 212.152C823.495 209.72 823.847 206.008 823.847 201.016V187.576C823.847 183.48 823.463 180.344 822.695 178.168C821.927 175.928 820.327 174.808 817.895 174.808C815.527 174.808 813.191 175.768 810.887 177.688V213.208C813.127 214.872 815.591 215.704 818.279 215.704ZM863.427 223.768C859.075 223.768 855.715 222.904 853.347 221.176C850.979 219.384 849.347 216.92 848.451 213.784C847.619 210.584 847.203 206.552 847.203 201.688V188.92C847.203 183.928 847.619 179.832 848.451 176.632C849.347 173.432 850.979 171 853.347 169.336C855.715 167.608 859.075 166.744 863.427 166.744C867.395 166.744 870.467 167.384 872.643 168.664C874.883 169.944 876.419 171.864 877.251 174.424C878.147 176.92 878.595 180.184 878.595 184.216V187.48H869.283V184.12C869.283 180.472 868.867 177.944 868.035 176.536C867.267 175.064 865.763 174.328 863.523 174.328C861.795 174.328 860.515 174.712 859.683 175.48C858.851 176.248 858.275 177.496 857.955 179.224C857.635 180.952 857.475 183.48 857.475 186.808V204.28C857.475 207.48 857.667 209.944 858.051 211.672C858.435 213.336 859.043 214.52 859.875 215.224C860.771 215.864 862.019 216.184 863.619 216.184C865.987 216.184 867.523 215.416 868.227 213.88C868.931 212.28 869.283 209.848 869.283 206.584V202.072H878.595V205.912C878.595 211.928 877.475 216.408 875.235 219.352C873.059 222.296 869.123 223.768 863.427 223.768ZM892.528 167.512H901.168V204.856L917.872 167.512H925.936V223H917.488V185.368L900.88 223H892.528V167.512ZM947.443 175.192H937.075V167.512H968.179V175.192H957.715V223H947.443V175.192ZM993.988 223.768C989.7 223.768 986.372 222.968 984.004 221.368C981.636 219.704 979.972 217.272 979.012 214.072C978.052 210.872 977.572 206.712 977.572 201.592V188.92C977.572 181.24 978.756 175.64 981.124 172.12C983.556 168.536 987.844 166.744 993.988 166.744C998.468 166.744 1001.83 167.672 1004.07 169.528C1006.37 171.384 1007.88 174.008 1008.58 177.4C1009.35 180.728 1009.73 185.24 1009.73 190.936V195.448H987.844V206.584C987.844 209.976 988.324 212.44 989.284 213.976C990.308 215.448 991.908 216.184 994.084 216.184C996.26 216.184 997.732 215.448 998.5 213.976C999.268 212.44 999.652 210.136 999.652 207.064V203.704H1009.64V205.816C1009.64 211.64 1008.39 216.088 1005.89 219.16C1003.4 222.232 999.428 223.768 993.988 223.768ZM999.652 189.88V184.888C999.652 181.112 999.268 178.424 998.5 176.824C997.796 175.16 996.26 174.328 993.892 174.328C992.228 174.328 990.948 174.712 990.052 175.48C989.22 176.248 988.644 177.528 988.324 179.32C988.004 181.048 987.844 183.576 987.844 186.904V189.88H999.652ZM1029.7 175.192H1019.33V167.512H1050.43V175.192H1039.97V223H1029.7V175.192ZM1071.43 223.768C1069.32 223.768 1067.4 223.16 1065.67 221.944C1064.01 220.728 1062.69 219.128 1061.73 217.144C1060.77 215.16 1060.29 213.08 1060.29 210.904C1060.29 206.552 1061.22 203.032 1063.08 200.344C1064.93 197.592 1067.3 195.416 1070.18 193.816C1073.06 192.216 1077.06 190.392 1082.18 188.344V184.408C1082.18 180.76 1081.8 178.2 1081.03 176.728C1080.33 175.192 1078.85 174.424 1076.61 174.424C1072.71 174.424 1070.76 177.048 1070.76 182.296V185.08L1060.58 184.696C1060.71 178.552 1062.12 174.04 1064.81 171.16C1067.49 168.216 1071.65 166.744 1077.29 166.744C1082.6 166.744 1086.44 168.216 1088.81 171.16C1091.24 174.04 1092.45 178.424 1092.45 184.312V209.656C1092.45 213.816 1092.77 218.264 1093.41 223H1084.01C1083.3 219.352 1082.85 216.632 1082.66 214.84C1081.89 217.336 1080.55 219.448 1078.63 221.176C1076.77 222.904 1074.37 223.768 1071.43 223.768ZM1075.46 214.936C1076.81 214.936 1078.12 214.424 1079.4 213.4C1080.68 212.312 1081.61 211.288 1082.18 210.328V194.584C1079.43 196.12 1077.29 197.464 1075.75 198.616C1074.28 199.704 1073.03 200.984 1072.01 202.456C1071.05 203.928 1070.57 205.688 1070.57 207.736C1070.57 210.04 1070.98 211.832 1071.81 213.112C1072.65 214.328 1073.86 214.936 1075.46 214.936Z" fill="white"/>
<path d="M325.535 290.12H335.183C338.543 290.12 340.975 291.032 342.479 292.856C344.015 294.68 344.783 297.352 344.783 300.872C344.783 304.04 343.967 306.504 342.335 308.264C340.703 310.024 338.335 310.904 335.231 310.904H330.959V329H325.535V290.12ZM333.455 307.016C335.055 307.016 336.287 306.84 337.151 306.488C338.047 306.136 338.687 305.528 339.071 304.664C339.455 303.8 339.647 302.552 339.647 300.92C339.647 298.936 339.503 297.48 339.215 296.552C338.927 295.624 338.351 294.968 337.487 294.584C336.655 294.2 335.327 294.008 333.503 294.008H330.959V307.016H333.455ZM360.165 328.904C356.645 328.904 354.117 327.96 352.581 326.072C351.077 324.184 350.325 321.4 350.325 317.72V315.8H355.461V317.336C355.461 319.096 355.541 320.472 355.701 321.464C355.861 322.424 356.277 323.208 356.949 323.816C357.621 324.392 358.677 324.68 360.117 324.68C361.557 324.68 362.629 324.36 363.333 323.72C364.069 323.08 364.549 322.2 364.773 321.08C364.997 319.96 365.109 318.472 365.109 316.616V310.472H358.293V306.92H365.109V301.256C365.109 299.272 364.949 297.72 364.629 296.6C364.309 295.48 363.781 294.68 363.045 294.2C362.341 293.72 361.365 293.48 360.117 293.48C358.741 293.48 357.717 293.784 357.045 294.392C356.373 295 355.941 295.832 355.749 296.888C355.557 297.944 355.461 299.384 355.461 301.208V302.888H350.325V301.16C350.325 297.288 351.061 294.328 352.533 292.28C354.005 290.232 356.549 289.208 360.165 289.208C364.005 289.208 366.693 290.36 368.229 292.664C369.797 294.936 370.581 298.088 370.581 302.12V315.848C370.581 320.136 369.813 323.384 368.277 325.592C366.741 327.8 364.037 328.904 360.165 328.904ZM377.808 330.728C378.672 330.824 379.424 330.872 380.064 330.872C381.632 330.872 382.704 330.616 383.28 330.104C383.888 329.592 384.192 328.776 384.192 327.656C384.192 327.016 384.08 326.024 383.856 324.68L376.176 290.12H381.312L384.576 306.68L386.544 319.016L388.272 306.776L391.2 290.12H396.384L389.424 324.776L389.04 326.936C388.624 329.208 388.208 330.856 387.792 331.88C387.408 332.904 386.656 333.672 385.536 334.184C384.416 334.728 382.688 335 380.352 335C379.936 335 379.088 334.968 377.808 334.904V330.728ZM415.328 301.256H419.648V319.928L428 301.256H432.032V329H427.808V310.184L419.504 329H415.328V301.256ZM439.809 301.256H443.601L449.745 318.296L455.937 301.256H459.729L460.017 329H455.697V312.44L450.561 326.264H448.977L443.841 312.536V329H439.521L439.809 301.256ZM467.232 323.288H472.368V329H467.232V323.288ZM492.719 290.12H507.503V294.152H498.143V329H492.719V290.12ZM512.963 323.288H518.099V329H512.963V323.288ZM525.082 290.12H534.01C537.53 290.12 540.138 290.92 541.834 292.52C543.53 294.088 544.378 296.536 544.378 299.864C544.378 304.824 542.522 307.56 538.81 308.072C541.114 308.616 542.794 309.704 543.85 311.336C544.906 312.936 545.434 315.128 545.434 317.912C545.434 321.4 544.602 324.12 542.938 326.072C541.306 328.024 538.81 329 535.45 329H525.082V290.12ZM533.722 306.344C535.962 306.344 537.514 305.864 538.378 304.904C539.242 303.912 539.674 302.232 539.674 299.864C539.674 298.136 539.402 296.872 538.858 296.072C538.346 295.24 537.562 294.712 536.506 294.488C535.45 294.264 533.882 294.152 531.802 294.152H530.506V306.344H533.722ZM534.154 325.112C535.754 325.112 536.986 324.872 537.85 324.392C538.746 323.88 539.37 323.112 539.722 322.088C540.074 321.064 540.25 319.672 540.25 317.912C540.25 315.416 539.738 313.56 538.714 312.344C537.69 311.096 536.026 310.472 533.722 310.472H530.506V325.112H534.154ZM551.982 323.288H557.118V329H551.982V323.288ZM577.469 290.12H598.877V329H593.453V294.008H582.893V329H577.469V290.12ZM605.13 325.352C606.41 325.352 607.338 325.016 607.914 324.344C608.522 323.64 608.938 322.504 609.162 320.936C609.418 319.368 609.642 316.824 609.834 313.304L610.458 301.256H625.002V329H619.866V305.144H614.97L614.538 313.304C614.314 317.752 613.946 321.08 613.434 323.288C612.922 325.464 612.074 327 610.89 327.896C609.738 328.792 608.01 329.24 605.706 329.24H605.13V325.352ZM640.283 329.384C638.139 329.384 636.475 328.984 635.291 328.184C634.107 327.352 633.275 326.136 632.795 324.536C632.315 322.936 632.075 320.856 632.075 318.296V311.96C632.075 308.12 632.667 305.32 633.851 303.56C635.067 301.768 637.211 300.872 640.283 300.872C642.523 300.872 644.203 301.336 645.323 302.264C646.475 303.192 647.227 304.504 647.579 306.2C647.963 307.864 648.155 310.12 648.155 312.968V315.224H637.211V320.792C637.211 322.488 637.451 323.72 637.931 324.488C638.443 325.224 639.243 325.592 640.331 325.592C641.419 325.592 642.155 325.224 642.539 324.488C642.923 323.72 643.115 322.568 643.115 321.032V319.352H648.107V320.408C648.107 323.32 647.483 325.544 646.235 327.08C644.987 328.616 643.003 329.384 640.283 329.384ZM643.115 312.44V309.944C643.115 308.056 642.923 306.712 642.539 305.912C642.187 305.08 641.419 304.664 640.235 304.664C639.403 304.664 638.763 304.856 638.315 305.24C637.899 305.624 637.611 306.264 637.451 307.16C637.291 308.024 637.211 309.288 637.211 310.952V312.44H643.115ZM659.286 314.408L653.19 301.256H658.086L662.166 310.04L665.766 301.256H670.806L664.47 315.032L670.902 329H666.006L661.638 319.592L657.894 329H653.046L659.286 314.408ZM681.254 329.384C680.198 329.384 679.238 329.08 678.374 328.472C677.542 327.864 676.886 327.064 676.406 326.072C675.926 325.08 675.686 324.04 675.686 322.952C675.686 320.776 676.15 319.016 677.078 317.672C678.006 316.296 679.19 315.208 680.63 314.408C682.07 313.608 684.07 312.696 686.63 311.672V309.704C686.63 307.88 686.438 306.6 686.054 305.864C685.702 305.096 684.966 304.712 683.846 304.712C681.894 304.712 680.918 306.024 680.918 308.648V310.04L675.83 309.848C675.894 306.776 676.598 304.52 677.942 303.08C679.286 301.608 681.366 300.872 684.182 300.872C686.838 300.872 688.758 301.608 689.942 303.08C691.158 304.52 691.766 306.712 691.766 309.656V322.328C691.766 324.408 691.926 326.632 692.246 329H687.542C687.19 327.176 686.966 325.816 686.87 324.92C686.486 326.168 685.814 327.224 684.854 328.088C683.926 328.952 682.726 329.384 681.254 329.384ZM683.27 324.968C683.942 324.968 684.598 324.712 685.238 324.2C685.878 323.656 686.342 323.144 686.63 322.664V314.792C685.254 315.56 684.182 316.232 683.414 316.808C682.678 317.352 682.054 317.992 681.542 318.728C681.062 319.464 680.822 320.344 680.822 321.368C680.822 322.52 681.03 323.416 681.446 324.056C681.862 324.664 682.47 324.968 683.27 324.968ZM699.1 301.256H704.236V312.92H710.812V301.256H715.948V329H710.812V316.664H704.236V329H699.1V301.256ZM731.163 329.384C728.219 329.384 726.123 328.52 724.875 326.792C723.659 325.032 723.051 322.488 723.051 319.16V311.096C723.051 307.768 723.659 305.24 724.875 303.512C726.123 301.752 728.219 300.872 731.163 300.872C734.075 300.872 736.139 301.752 737.355 303.512C738.603 305.24 739.227 307.768 739.227 311.096V319.16C739.227 322.488 738.603 325.032 737.355 326.792C736.139 328.52 734.075 329.384 731.163 329.384ZM731.163 325.592C732.091 325.592 732.763 325.32 733.179 324.776C733.595 324.232 733.851 323.56 733.947 322.76C734.043 321.96 734.091 320.872 734.091 319.496V310.808C734.091 309.432 734.043 308.344 733.947 307.544C733.851 306.712 733.595 306.024 733.179 305.48C732.763 304.936 732.091 304.664 731.163 304.664C730.235 304.664 729.547 304.936 729.099 305.48C728.683 306.024 728.427 306.712 728.331 307.544C728.235 308.344 728.187 309.432 728.187 310.808V319.496C728.187 320.872 728.235 321.96 728.331 322.76C728.427 323.56 728.683 324.232 729.099 324.776C729.547 325.32 730.235 325.592 731.163 325.592ZM746.322 301.256H754.098C756.754 301.256 758.658 301.896 759.81 303.176C760.994 304.456 761.586 306.104 761.586 308.12C761.586 309.592 761.314 310.824 760.77 311.816C760.226 312.776 759.282 313.464 757.938 313.88C759.506 314.2 760.61 315 761.25 316.28C761.922 317.56 762.258 319.112 762.258 320.936C762.258 323.56 761.666 325.56 760.482 326.936C759.298 328.312 757.25 329 754.338 329H746.322V301.256ZM753.858 312.44C754.914 312.44 755.714 312.136 756.258 311.528C756.802 310.92 757.074 309.912 757.074 308.504C757.074 307.256 756.754 306.36 756.114 305.816C755.474 305.272 754.546 305 753.33 305H751.362V312.44H753.858ZM753.186 325.112C754.466 325.112 755.458 324.808 756.162 324.2C756.866 323.592 757.218 322.44 757.218 320.744C757.218 319.368 757.058 318.36 756.738 317.72C756.418 317.048 756.002 316.616 755.49 316.424C754.978 316.232 754.29 316.136 753.426 316.136H751.362V325.112H753.186ZM773.636 329.384C772.58 329.384 771.62 329.08 770.756 328.472C769.924 327.864 769.268 327.064 768.788 326.072C768.308 325.08 768.068 324.04 768.068 322.952C768.068 320.776 768.532 319.016 769.46 317.672C770.388 316.296 771.572 315.208 773.012 314.408C774.452 313.608 776.452 312.696 779.012 311.672V309.704C779.012 307.88 778.82 306.6 778.436 305.864C778.084 305.096 777.348 304.712 776.228 304.712C774.276 304.712 773.3 306.024 773.3 308.648V310.04L768.212 309.848C768.276 306.776 768.98 304.52 770.324 303.08C771.668 301.608 773.748 300.872 776.564 300.872C779.22 300.872 781.14 301.608 782.324 303.08C783.54 304.52 784.148 306.712 784.148 309.656V322.328C784.148 324.408 784.308 326.632 784.628 329H779.924C779.572 327.176 779.348 325.816 779.252 324.92C778.868 326.168 778.196 327.224 777.236 328.088C776.308 328.952 775.108 329.384 773.636 329.384ZM775.652 324.968C776.324 324.968 776.98 324.712 777.62 324.2C778.26 323.656 778.724 323.144 779.012 322.664V314.792C777.636 315.56 776.564 316.232 775.796 316.808C775.06 317.352 774.436 317.992 773.924 318.728C773.444 319.464 773.204 320.344 773.204 321.368C773.204 322.52 773.412 323.416 773.828 324.056C774.244 324.664 774.852 324.968 775.652 324.968Z" fill="white"/>
</svg>
