<svg width="1113" height="361" viewBox="0 0 1113 361" fill="none" xmlns="http://www.w3.org/2000/svg">
<path d="M154.679 25.24H165.527V59.8H169.559L183.479 25.24H194.327L178.967 62.2L196.247 103H185.399L169.655 65.08H165.527V103H154.679V25.24ZM217.349 103.768C215.237 103.768 213.317 103.16 211.589 101.944C209.925 100.728 208.613 99.128 207.653 97.144C206.693 95.16 206.213 93.08 206.213 90.904C206.213 86.552 207.141 83.032 208.997 80.344C210.853 77.592 213.221 75.416 216.101 73.816C218.981 72.216 222.981 70.392 228.101 68.344V64.408C228.101 60.76 227.717 58.2 226.949 56.728C226.245 55.192 224.773 54.424 222.533 54.424C218.629 54.424 216.677 57.048 216.677 62.296V65.08L206.501 64.696C206.629 58.552 208.037 54.04 210.725 51.16C213.413 48.216 217.573 46.744 223.205 46.744C228.517 46.744 232.357 48.216 234.725 51.16C237.157 54.04 238.373 58.424 238.373 64.312V89.656C238.373 93.816 238.693 98.264 239.333 103H229.925C229.221 99.352 228.773 96.632 228.581 94.84C227.813 97.336 226.469 99.448 224.549 101.176C222.693 102.904 220.293 103.768 217.349 103.768ZM221.381 94.936C222.725 94.936 224.037 94.424 225.317 93.4C226.597 92.312 227.525 91.288 228.101 90.328V74.584C225.349 76.12 223.205 77.464 221.669 78.616C220.197 79.704 218.949 80.984 217.925 82.456C216.965 83.928 216.485 85.688 216.485 87.736C216.485 90.04 216.901 91.832 217.733 93.112C218.565 94.328 219.781 94.936 221.381 94.936ZM248.048 96.184C250.864 94.072 253.232 91.448 255.152 88.312C257.072 85.176 258.608 80.888 259.76 75.448C260.912 70.008 261.52 63.128 261.584 54.808L261.776 47.512H286.832V95.704H293.552V117.112H286.064L285.2 103H256.4L255.536 117.112H248.048V96.184ZM276.944 95.704V54.904H269.744L269.552 56.92C269.488 65.496 268.944 72.408 267.92 77.656C266.896 82.84 265.584 86.744 263.984 89.368C262.384 91.992 260.4 94.104 258.032 95.704H276.944ZM305.465 47.512H315.737V51.928C318.745 48.472 322.265 46.744 326.297 46.744C331.353 46.744 334.713 48.92 336.377 53.272C338.105 57.56 338.969 62.328 338.969 67.576V81.016C338.969 87.8 337.913 93.304 335.801 97.528C333.753 101.688 330.201 103.768 325.145 103.768C321.881 103.768 318.745 102.136 315.737 98.872V121.24H305.465V47.512ZM323.129 95.704C325.497 95.704 327.001 94.52 327.641 92.152C328.345 89.72 328.697 86.008 328.697 81.016V67.576C328.697 63.48 328.313 60.344 327.545 58.168C326.777 55.928 325.177 54.808 322.745 54.808C320.377 54.808 318.041 55.768 315.737 57.688V93.208C317.977 94.872 320.441 95.704 323.129 95.704ZM353.109 47.512H363.381V70.456H365.013C370.325 70.52 374.453 71.032 377.397 71.992C380.341 72.888 382.485 74.488 383.829 76.792C385.237 79.096 385.941 82.392 385.941 86.68C385.941 90.776 385.237 94.008 383.829 96.376C382.421 98.68 380.117 100.376 376.917 101.464C373.781 102.488 369.461 103 363.957 103H353.109V47.512ZM392.277 47.512H402.549V103H392.277V47.512ZM363.957 96.952C367.285 96.952 369.845 96.664 371.637 96.088C373.493 95.512 374.805 94.488 375.573 93.016C376.341 91.544 376.725 89.4 376.725 86.584C376.725 84.024 376.373 82.04 375.669 80.632C374.965 79.224 373.749 78.2 372.021 77.56C370.293 76.92 367.765 76.568 364.437 76.504H363.381V96.952H363.957ZM444.459 47.512H476.715V103H466.443V55.288H454.731V103H444.459V47.512ZM507.179 103.768C501.291 103.768 497.099 102.04 494.603 98.584C492.171 95.064 490.955 89.976 490.955 83.32V67.192C490.955 60.536 492.171 55.48 494.603 52.024C497.099 48.504 501.291 46.744 507.179 46.744C513.003 46.744 517.131 48.504 519.563 52.024C522.059 55.48 523.307 60.536 523.307 67.192V83.32C523.307 89.976 522.059 95.064 519.563 98.584C517.131 102.04 513.003 103.768 507.179 103.768ZM507.179 96.184C509.035 96.184 510.379 95.64 511.211 94.552C512.043 93.464 512.555 92.12 512.747 90.52C512.939 88.92 513.035 86.744 513.035 83.992V66.616C513.035 63.864 512.939 61.688 512.747 60.088C512.555 58.424 512.043 57.048 511.211 55.96C510.379 54.872 509.035 54.328 507.179 54.328C505.323 54.328 503.947 54.872 503.051 55.96C502.219 57.048 501.707 58.424 501.515 60.088C501.323 61.688 501.227 63.864 501.227 66.616V83.992C501.227 86.744 501.323 88.92 501.515 90.52C501.707 92.12 502.219 93.464 503.051 94.552C503.947 95.64 505.323 96.184 507.179 96.184ZM583.338 99.928H582.378C577.066 99.928 572.522 98.424 568.746 95.416C565.034 92.344 563.178 86.776 563.178 78.712V68.728C563.178 61.944 564.938 56.888 568.458 53.56C571.978 50.168 576.522 48.472 582.09 48.472H583.338V25.24H592.842V48.472H594.474C599.978 48.472 604.458 50.136 607.914 53.464C611.37 56.792 613.098 61.88 613.098 68.728V78.712C613.098 86.776 611.274 92.344 607.626 95.416C603.978 98.424 599.498 99.928 594.186 99.928H592.842V121.24H583.338V99.928ZM583.338 92.632V55.192H582.378C579.114 55.192 576.65 56.056 574.986 57.784C573.322 59.512 572.49 62.648 572.49 67.192V78.616C572.49 83.928 573.29 87.608 574.89 89.656C576.554 91.64 579.146 92.632 582.666 92.632H583.338ZM593.418 92.632C596.938 92.632 599.53 91.64 601.194 89.656C602.922 87.608 603.786 83.928 603.786 78.616V67.192C603.786 62.648 602.922 59.512 601.194 57.784C599.53 56.056 597.034 55.192 593.706 55.192H592.842V92.632H593.418ZM627.253 47.512H635.893V84.856L652.597 47.512H660.661V103H652.213V65.368L635.605 103H627.253V47.512ZM672.376 95.704C674.936 95.704 676.792 95.032 677.944 93.688C679.16 92.28 679.992 90.008 680.44 86.872C680.952 83.736 681.4 78.648 681.784 71.608L683.032 47.512H712.12V103H701.848V55.288H692.056L691.192 71.608C690.744 80.504 690.008 87.16 688.984 91.576C687.96 95.928 686.264 99 683.896 100.792C681.592 102.584 678.136 103.48 673.528 103.48H672.376V95.704ZM727.321 47.512H735.961V84.856L752.665 47.512H760.729V103H752.281V65.368L735.673 103H727.321V47.512ZM785.981 103.768C783.869 103.768 781.949 103.16 780.221 101.944C778.557 100.728 777.245 99.128 776.285 97.144C775.325 95.16 774.845 93.08 774.845 90.904C774.845 86.552 775.773 83.032 777.629 80.344C779.485 77.592 781.853 75.416 784.733 73.816C787.613 72.216 791.613 70.392 796.733 68.344V64.408C796.733 60.76 796.349 58.2 795.581 56.728C794.877 55.192 793.405 54.424 791.165 54.424C787.261 54.424 785.309 57.048 785.309 62.296V65.08L775.133 64.696C775.261 58.552 776.669 54.04 779.357 51.16C782.045 48.216 786.205 46.744 791.837 46.744C797.149 46.744 800.989 48.216 803.357 51.16C805.789 54.04 807.005 58.424 807.005 64.312V89.656C807.005 93.816 807.325 98.264 807.965 103H798.557C797.853 99.352 797.405 96.632 797.213 94.84C796.445 97.336 795.101 99.448 793.181 101.176C791.325 102.904 788.925 103.768 785.981 103.768ZM790.013 94.936C791.357 94.936 792.669 94.424 793.949 93.4C795.229 92.312 796.157 91.288 796.733 90.328V74.584C793.981 76.12 791.837 77.464 790.301 78.616C788.829 79.704 787.581 80.984 786.557 82.456C785.597 83.928 785.117 85.688 785.117 87.736C785.117 90.04 785.533 91.832 786.365 93.112C787.197 94.328 788.413 94.936 790.013 94.936ZM818.12 95.704C820.68 95.704 822.536 95.032 823.688 93.688C824.904 92.28 825.736 90.008 826.184 86.872C826.696 83.736 827.144 78.648 827.528 71.608L828.776 47.512H857.864V103H847.592V55.288H837.8L836.936 71.608C836.488 80.504 835.752 87.16 834.728 91.576C833.704 95.928 832.008 99 829.64 100.792C827.336 102.584 823.88 103.48 819.272 103.48H818.12V95.704ZM883.049 103.768C880.937 103.768 879.017 103.16 877.289 101.944C875.625 100.728 874.313 99.128 873.353 97.144C872.393 95.16 871.913 93.08 871.913 90.904C871.913 86.552 872.841 83.032 874.697 80.344C876.553 77.592 878.921 75.416 881.801 73.816C884.681 72.216 888.681 70.392 893.801 68.344V64.408C893.801 60.76 893.417 58.2 892.649 56.728C891.945 55.192 890.473 54.424 888.233 54.424C884.329 54.424 882.377 57.048 882.377 62.296V65.08L872.201 64.696C872.329 58.552 873.737 54.04 876.425 51.16C879.113 48.216 883.273 46.744 888.905 46.744C894.217 46.744 898.057 48.216 900.425 51.16C902.857 54.04 904.073 58.424 904.073 64.312V89.656C904.073 93.816 904.393 98.264 905.033 103H895.625C894.921 99.352 894.473 96.632 894.281 94.84C893.513 97.336 892.169 99.448 890.249 101.176C888.393 102.904 885.993 103.768 883.049 103.768ZM887.081 94.936C888.425 94.936 889.737 94.424 891.017 93.4C892.297 92.312 893.225 91.288 893.801 90.328V74.584C891.049 76.12 888.905 77.464 887.369 78.616C885.897 79.704 884.649 80.984 883.625 82.456C882.665 83.928 882.185 85.688 882.185 87.736C882.185 90.04 882.601 91.832 883.433 93.112C884.265 94.328 885.481 94.936 887.081 94.936ZM919.028 47.512H926.612L938.9 81.592L951.284 47.512H958.868L959.444 103H950.804V69.88L940.532 97.528H937.364L927.092 70.072V103H918.452L919.028 47.512Z" fill="white"/>
<path d="M325.535 290.12H335.183C338.543 290.12 340.975 291.032 342.479 292.856C344.015 294.68 344.783 297.352 344.783 300.872C344.783 304.04 343.967 306.504 342.335 308.264C340.703 310.024 338.335 310.904 335.231 310.904H330.959V329H325.535V290.12ZM333.455 307.016C335.055 307.016 336.287 306.84 337.151 306.488C338.047 306.136 338.687 305.528 339.071 304.664C339.455 303.8 339.647 302.552 339.647 300.92C339.647 298.936 339.503 297.48 339.215 296.552C338.927 295.624 338.351 294.968 337.487 294.584C336.655 294.2 335.327 294.008 333.503 294.008H330.959V307.016H333.455ZM360.165 328.904C356.645 328.904 354.117 327.96 352.581 326.072C351.077 324.184 350.325 321.4 350.325 317.72V315.8H355.461V317.336C355.461 319.096 355.541 320.472 355.701 321.464C355.861 322.424 356.277 323.208 356.949 323.816C357.621 324.392 358.677 324.68 360.117 324.68C361.557 324.68 362.629 324.36 363.333 323.72C364.069 323.08 364.549 322.2 364.773 321.08C364.997 319.96 365.109 318.472 365.109 316.616V310.472H358.293V306.92H365.109V301.256C365.109 299.272 364.949 297.72 364.629 296.6C364.309 295.48 363.781 294.68 363.045 294.2C362.341 293.72 361.365 293.48 360.117 293.48C358.741 293.48 357.717 293.784 357.045 294.392C356.373 295 355.941 295.832 355.749 296.888C355.557 297.944 355.461 299.384 355.461 301.208V302.888H350.325V301.16C350.325 297.288 351.061 294.328 352.533 292.28C354.005 290.232 356.549 289.208 360.165 289.208C364.005 289.208 366.693 290.36 368.229 292.664C369.797 294.936 370.581 298.088 370.581 302.12V315.848C370.581 320.136 369.813 323.384 368.277 325.592C366.741 327.8 364.037 328.904 360.165 328.904ZM377.808 330.728C378.672 330.824 379.424 330.872 380.064 330.872C381.632 330.872 382.704 330.616 383.28 330.104C383.888 329.592 384.192 328.776 384.192 327.656C384.192 327.016 384.08 326.024 383.856 324.68L376.176 290.12H381.312L384.576 306.68L386.544 319.016L388.272 306.776L391.2 290.12H396.384L389.424 324.776L389.04 326.936C388.624 329.208 388.208 330.856 387.792 331.88C387.408 332.904 386.656 333.672 385.536 334.184C384.416 334.728 382.688 335 380.352 335C379.936 335 379.088 334.968 377.808 334.904V330.728ZM415.328 301.256H419.648V319.928L428 301.256H432.032V329H427.808V310.184L419.504 329H415.328V301.256ZM439.809 301.256H443.601L449.745 318.296L455.937 301.256H459.729L460.017 329H455.697V312.44L450.561 326.264H448.977L443.841 312.536V329H439.521L439.809 301.256ZM467.232 323.288H472.368V329H467.232V323.288ZM492.719 290.12H507.503V294.152H498.143V329H492.719V290.12ZM512.963 323.288H518.099V329H512.963V323.288ZM525.082 290.12H534.01C537.53 290.12 540.138 290.92 541.834 292.52C543.53 294.088 544.378 296.536 544.378 299.864C544.378 304.824 542.522 307.56 538.81 308.072C541.114 308.616 542.794 309.704 543.85 311.336C544.906 312.936 545.434 315.128 545.434 317.912C545.434 321.4 544.602 324.12 542.938 326.072C541.306 328.024 538.81 329 535.45 329H525.082V290.12ZM533.722 306.344C535.962 306.344 537.514 305.864 538.378 304.904C539.242 303.912 539.674 302.232 539.674 299.864C539.674 298.136 539.402 296.872 538.858 296.072C538.346 295.24 537.562 294.712 536.506 294.488C535.45 294.264 533.882 294.152 531.802 294.152H530.506V306.344H533.722ZM534.154 325.112C535.754 325.112 536.986 324.872 537.85 324.392C538.746 323.88 539.37 323.112 539.722 322.088C540.074 321.064 540.25 319.672 540.25 317.912C540.25 315.416 539.738 313.56 538.714 312.344C537.69 311.096 536.026 310.472 533.722 310.472H530.506V325.112H534.154ZM551.982 323.288H557.118V329H551.982V323.288ZM577.469 290.12H598.877V329H593.453V294.008H582.893V329H577.469V290.12ZM605.13 325.352C606.41 325.352 607.338 325.016 607.914 324.344C608.522 323.64 608.938 322.504 609.162 320.936C609.418 319.368 609.642 316.824 609.834 313.304L610.458 301.256H625.002V329H619.866V305.144H614.97L614.538 313.304C614.314 317.752 613.946 321.08 613.434 323.288C612.922 325.464 612.074 327 610.89 327.896C609.738 328.792 608.01 329.24 605.706 329.24H605.13V325.352ZM640.283 329.384C638.139 329.384 636.475 328.984 635.291 328.184C634.107 327.352 633.275 326.136 632.795 324.536C632.315 322.936 632.075 320.856 632.075 318.296V311.96C632.075 308.12 632.667 305.32 633.851 303.56C635.067 301.768 637.211 300.872 640.283 300.872C642.523 300.872 644.203 301.336 645.323 302.264C646.475 303.192 647.227 304.504 647.579 306.2C647.963 307.864 648.155 310.12 648.155 312.968V315.224H637.211V320.792C637.211 322.488 637.451 323.72 637.931 324.488C638.443 325.224 639.243 325.592 640.331 325.592C641.419 325.592 642.155 325.224 642.539 324.488C642.923 323.72 643.115 322.568 643.115 321.032V319.352H648.107V320.408C648.107 323.32 647.483 325.544 646.235 327.08C644.987 328.616 643.003 329.384 640.283 329.384ZM643.115 312.44V309.944C643.115 308.056 642.923 306.712 642.539 305.912C642.187 305.08 641.419 304.664 640.235 304.664C639.403 304.664 638.763 304.856 638.315 305.24C637.899 305.624 637.611 306.264 637.451 307.16C637.291 308.024 637.211 309.288 637.211 310.952V312.44H643.115ZM659.286 314.408L653.19 301.256H658.086L662.166 310.04L665.766 301.256H670.806L664.47 315.032L670.902 329H666.006L661.638 319.592L657.894 329H653.046L659.286 314.408ZM681.254 329.384C680.198 329.384 679.238 329.08 678.374 328.472C677.542 327.864 676.886 327.064 676.406 326.072C675.926 325.08 675.686 324.04 675.686 322.952C675.686 320.776 676.15 319.016 677.078 317.672C678.006 316.296 679.19 315.208 680.63 314.408C682.07 313.608 684.07 312.696 686.63 311.672V309.704C686.63 307.88 686.438 306.6 686.054 305.864C685.702 305.096 684.966 304.712 683.846 304.712C681.894 304.712 680.918 306.024 680.918 308.648V310.04L675.83 309.848C675.894 306.776 676.598 304.52 677.942 303.08C679.286 301.608 681.366 300.872 684.182 300.872C686.838 300.872 688.758 301.608 689.942 303.08C691.158 304.52 691.766 306.712 691.766 309.656V322.328C691.766 324.408 691.926 326.632 692.246 329H687.542C687.19 327.176 686.966 325.816 686.87 324.92C686.486 326.168 685.814 327.224 684.854 328.088C683.926 328.952 682.726 329.384 681.254 329.384ZM683.27 324.968C683.942 324.968 684.598 324.712 685.238 324.2C685.878 323.656 686.342 323.144 686.63 322.664V314.792C685.254 315.56 684.182 316.232 683.414 316.808C682.678 317.352 682.054 317.992 681.542 318.728C681.062 319.464 680.822 320.344 680.822 321.368C680.822 322.52 681.03 323.416 681.446 324.056C681.862 324.664 682.47 324.968 683.27 324.968ZM699.1 301.256H704.236V312.92H710.812V301.256H715.948V329H710.812V316.664H704.236V329H699.1V301.256ZM731.163 329.384C728.219 329.384 726.123 328.52 724.875 326.792C723.659 325.032 723.051 322.488 723.051 319.16V311.096C723.051 307.768 723.659 305.24 724.875 303.512C726.123 301.752 728.219 300.872 731.163 300.872C734.075 300.872 736.139 301.752 737.355 303.512C738.603 305.24 739.227 307.768 739.227 311.096V319.16C739.227 322.488 738.603 325.032 737.355 326.792C736.139 328.52 734.075 329.384 731.163 329.384ZM731.163 325.592C732.091 325.592 732.763 325.32 733.179 324.776C733.595 324.232 733.851 323.56 733.947 322.76C734.043 321.96 734.091 320.872 734.091 319.496V310.808C734.091 309.432 734.043 308.344 733.947 307.544C733.851 306.712 733.595 306.024 733.179 305.48C732.763 304.936 732.091 304.664 731.163 304.664C730.235 304.664 729.547 304.936 729.099 305.48C728.683 306.024 728.427 306.712 728.331 307.544C728.235 308.344 728.187 309.432 728.187 310.808V319.496C728.187 320.872 728.235 321.96 728.331 322.76C728.427 323.56 728.683 324.232 729.099 324.776C729.547 325.32 730.235 325.592 731.163 325.592ZM746.322 301.256H754.098C756.754 301.256 758.658 301.896 759.81 303.176C760.994 304.456 761.586 306.104 761.586 308.12C761.586 309.592 761.314 310.824 760.77 311.816C760.226 312.776 759.282 313.464 757.938 313.88C759.506 314.2 760.61 315 761.25 316.28C761.922 317.56 762.258 319.112 762.258 320.936C762.258 323.56 761.666 325.56 760.482 326.936C759.298 328.312 757.25 329 754.338 329H746.322V301.256ZM753.858 312.44C754.914 312.44 755.714 312.136 756.258 311.528C756.802 310.92 757.074 309.912 757.074 308.504C757.074 307.256 756.754 306.36 756.114 305.816C755.474 305.272 754.546 305 753.33 305H751.362V312.44H753.858ZM753.186 325.112C754.466 325.112 755.458 324.808 756.162 324.2C756.866 323.592 757.218 322.44 757.218 320.744C757.218 319.368 757.058 318.36 756.738 317.72C756.418 317.048 756.002 316.616 755.49 316.424C754.978 316.232 754.29 316.136 753.426 316.136H751.362V325.112H753.186ZM773.636 329.384C772.58 329.384 771.62 329.08 770.756 328.472C769.924 327.864 769.268 327.064 768.788 326.072C768.308 325.08 768.068 324.04 768.068 322.952C768.068 320.776 768.532 319.016 769.46 317.672C770.388 316.296 771.572 315.208 773.012 314.408C774.452 313.608 776.452 312.696 779.012 311.672V309.704C779.012 307.88 778.82 306.6 778.436 305.864C778.084 305.096 777.348 304.712 776.228 304.712C774.276 304.712 773.3 306.024 773.3 308.648V310.04L768.212 309.848C768.276 306.776 768.98 304.52 770.324 303.08C771.668 301.608 773.748 300.872 776.564 300.872C779.22 300.872 781.14 301.608 782.324 303.08C783.54 304.52 784.148 306.712 784.148 309.656V322.328C784.148 324.408 784.308 326.632 784.628 329H779.924C779.572 327.176 779.348 325.816 779.252 324.92C778.868 326.168 778.196 327.224 777.236 328.088C776.308 328.952 775.108 329.384 773.636 329.384ZM775.652 324.968C776.324 324.968 776.98 324.712 777.62 324.2C778.26 323.656 778.724 323.144 779.012 322.664V314.792C777.636 315.56 776.564 316.232 775.796 316.808C775.06 317.352 774.436 317.992 773.924 318.728C773.444 319.464 773.204 320.344 773.204 321.368C773.204 322.52 773.412 323.416 773.828 324.056C774.244 324.664 774.852 324.968 775.652 324.968Z" fill="white"/>
</svg>
